<svg xmlns="http://www.w3.org/2000/svg" width="15.438" height="15.736" viewBox="0 0 15.438 15.736">
  <path id="Icon_ionic-logo-google" data-name="Icon ionic-logo-google" d="M19,10.038,18.923,9.7H11.6v3.1h4.374a4.378,4.378,0,0,1-4.283,3.292,5.122,5.122,0,0,1-3.447-1.373,4.921,4.921,0,0,1-1.468-3.473,5.076,5.076,0,0,1,1.442-3.47,4.9,4.9,0,0,1,3.424-1.339,4.466,4.466,0,0,1,2.913,1.135l2.2-2.191a7.792,7.792,0,0,0-5.187-2h0A8.019,8.019,0,0,0,5.9,5.69a7.987,7.987,0,0,0-2.24,5.558,7.907,7.907,0,0,0,2.153,5.467,8.213,8.213,0,0,0,5.921,2.4,7.3,7.3,0,0,0,5.32-2.236,7.855,7.855,0,0,0,2.043-5.441A9.06,9.06,0,0,0,19,10.038Z" transform="translate(-3.656 -3.382)" fill="#fff"/>
</svg>
